<?xml version="1.0" encoding="UTF-8" standalone="no"?>
<!-- Created with Inkscape (http://www.inkscape.org/) -->

<svg
   width="48"
   height="48"
   viewBox="0 0 48 48"
   version="1.1"
   id="svg1"
   xml:space="preserve"
   inkscape:version="1.3.2 (091e20e, 2023-11-25, custom)"
   sodipodi:docname="favicon-vacinicigreen.svg"
   xmlns:inkscape="http://www.inkscape.org/namespaces/inkscape"
   xmlns:sodipodi="http://sodipodi.sourceforge.net/DTD/sodipodi-0.dtd"
   xmlns="http://www.w3.org/2000/svg"
   xmlns:svg="http://www.w3.org/2000/svg"><sodipodi:namedview
     id="namedview1"
     pagecolor="#505050"
     bordercolor="#eeeeee"
     borderopacity="1"
     inkscape:showpageshadow="0"
     inkscape:pageopacity="0"
     inkscape:pagecheckerboard="0"
     inkscape:deskcolor="#505050"
     inkscape:document-units="px"
     inkscape:zoom="10.604167"
     inkscape:cx="24.801572"
     inkscape:cy="23.717092"
     inkscape:window-width="1366"
     inkscape:window-height="705"
     inkscape:window-x="-8"
     inkscape:window-y="-8"
     inkscape:window-maximized="1"
     inkscape:current-layer="layer1" /><defs
     id="defs1" /><g
     inkscape:label="Camada 1"
     inkscape:groupmode="layer"
     id="layer1"><g
       inkscape:label="Camada 1"
       id="layer1-8"
       transform="matrix(0.25657445,0,0,0.25657445,-259.91361,-7.3471236)"
       style="fill:#6f925f;fill-opacity:1"><path
         d="m 1092.7769,54.196655 c -0.463,0.01588 -0.9105,0.04814 -1.3437,0.09375 -10.2925,-0.447607 -16.7808,9.056798 -19.4844,28.457031 -10.2028,4.252242 -19.3985,10.053804 -22.1094,25.832034 32.1103,-29.557227 55.1719,-7.73855 57.3535,-5.03515 3.9854,-2.12338 7.3956,-4.255034 11.9942,-4.332044 7.6245,-0.12769 16.0499,0.72274 25.2207,7.396494 -11.3839,-2.64182 -14.9896,-0.52981 -18.4961,1.42383 -4.3681,2.43368 -10.9466,10.34065 -18.416,19.35351 -3.8926,4.69692 -9.561,7.79861 -13.6563,12.06055 7.0309,-9.75162 7.1947,-18.19592 1.9707,-25.61328 -9.0483,-11.86663 -18.0962,-9.06284 -27.1445,-5.47266 -2.1584,24.9514 1.0811,41.13141 12.916,43.34375 19.652,2.99788 35.5881,-6.74217 51.2246,-17.51172 11.2908,-9.15108 25.6074,-16.22381 30.209,-31.52343 2.5836,-8.589964 -14.9068,-21.166253 -34.3672,-34.1504 -18.486,-11.303033 -28.9263,-14.560514 -35.8711,-14.322265 z m 16.0586,21.328125 a 10.179327,9.9056892 0 0 1 10.1797,9.904297 10.179327,9.9056892 0 0 1 -10.1797,9.90625 10.179327,9.9056892 0 0 1 -10.1797,-9.90625 10.179327,9.9056892 0 0 1 10.1797,-9.904297 z"
         style="opacity:1;fill:#6f925f;fill-opacity:1"
         id="path3" /><text
         xml:space="preserve"
         style="font-weight:900;font-size:29.0143px;line-height:0;font-family:Arial;-inkscape-font-specification:'Arial Heavy';letter-spacing:4.37632px;opacity:1;fill:#6f925f;fill-opacity:1;stroke-width:2.41786"
         x="1019.3746"
         y="189.7981"
         id="text3"><tspan
           sodipodi:role="line"
           id="tspan3"
           x="1019.3746"
           y="189.7981"
           style="stroke-width:2.41786;fill:#6f925f;fill-opacity:1">VACINICI</tspan></text></g></g></svg>
